<svg width="40" height="41" viewBox="0 0 40 41" fill="none" xmlns="http://www.w3.org/2000/svg">
<rect x="1" y="1.90625" width="38" height="38" stroke="black" stroke-width="2"/>
<g clip-path="url(#clip0_1_278)">
<path d="M15.0299 28.7812H11.2973V18.266H15.0299V28.7812ZM13.1616 16.8316C11.9683 16.8316 11 15.9668 11 14.9227C11 13.8785 11.9683 13.0312 13.1616 13.0312C14.3549 13.0312 15.3232 13.8785 15.3232 14.9227C15.3232 15.9668 14.3549 16.8316 13.1616 16.8316ZM29 28.7812H25.2754V23.6625C25.2754 22.4426 25.2473 20.8781 23.3348 20.8781C21.3942 20.8781 21.0969 22.2035 21.0969 23.5746V28.7812H17.3683V18.266H20.9482V19.7004H21.0004C21.4986 18.8742 22.7161 18.0023 24.5321 18.0023C28.3089 18.0023 29.004 20.1785 29.004 23.0051V28.7812H29Z" fill="black"/>
</g>
<defs>
<clipPath id="clip0_1_278">
<rect width="18" height="18" fill="white" transform="translate(11 11.9062)"/>
</clipPath>
</defs>
</svg>
