<svg width="20" height="21" viewBox="0 0 20 21" fill="none" xmlns="http://www.w3.org/2000/svg">
<path d="M10.016 0.829999C11.816 0.829999 13.445 1.253 14.903 2.099C16.379 2.945 17.54 4.106 18.386 5.582C19.232 7.04 19.655 8.669 19.655 10.469C19.655 12.269 19.232 13.907 18.386 15.383C17.54 16.841 16.379 18.002 14.903 18.866C13.427 19.712 11.798 20.135 10.016 20.135C8.216 20.135 6.578 19.712 5.102 18.866C3.626 18.002 2.465 16.841 1.619 15.383C0.773 13.907 0.35 12.269 0.35 10.469C0.35 8.669 0.773 7.04 1.619 5.582C2.465 4.106 3.626 2.945 5.102 2.099C6.578 1.253 8.216 0.829999 10.016 0.829999ZM10.016 18.92C11.582 18.92 13.004 18.551 14.282 17.813C15.56 17.075 16.559 16.058 17.279 14.762C18.017 13.466 18.386 12.035 18.386 10.469C18.386 8.903 18.017 7.481 17.279 6.203C16.559 4.907 15.56 3.89 14.282 3.152C13.004 2.414 11.582 2.045 10.016 2.045C8.432 2.045 7.001 2.414 5.723 3.152C4.445 3.89 3.437 4.907 2.699 6.203C1.979 7.481 1.619 8.903 1.619 10.469C1.619 12.035 1.979 13.466 2.699 14.762C3.437 16.058 4.445 17.075 5.723 17.813C7.001 18.551 8.432 18.92 10.016 18.92ZM14.795 14.978C14.939 15.176 15.011 15.356 15.011 15.518C15.011 15.752 14.912 15.95 14.714 16.112C14.516 16.256 14.291 16.328 14.039 16.328C13.643 16.328 13.328 16.148 13.094 15.788L10.961 12.521C10.745 12.179 10.511 11.945 10.259 11.819C10.025 11.675 9.701 11.603 9.287 11.603H7.964V15.302C7.964 15.626 7.874 15.878 7.694 16.058C7.514 16.22 7.271 16.301 6.965 16.301C6.659 16.301 6.416 16.22 6.236 16.058C6.056 15.878 5.966 15.626 5.966 15.302V5.771C5.966 5.465 6.047 5.222 6.209 5.042C6.389 4.862 6.632 4.772 6.938 4.772H10.745C11.987 4.772 12.95 5.069 13.634 5.663C14.336 6.239 14.687 7.067 14.687 8.147C14.687 9.047 14.426 9.785 13.904 10.361C13.4 10.919 12.689 11.27 11.771 11.414C12.077 11.486 12.347 11.621 12.581 11.819C12.815 12.017 13.058 12.287 13.31 12.629L14.795 14.978ZM10.502 10.037C11.24 10.037 11.789 9.893 12.149 9.605C12.527 9.317 12.716 8.849 12.716 8.201C12.716 7.535 12.536 7.067 12.176 6.797C11.816 6.509 11.258 6.365 10.502 6.365H7.964V10.037H10.502Z" fill="#222222"/>
</svg>
